<?xml version="1.0" encoding="utf-8"?>
<!-- Generator: Adobe Illustrator 24.2.0, SVG Export Plug-In . SVG Version: 6.00 Build 0)  -->
<svg version="1.1" id="Layer_1" xmlns="http://www.w3.org/2000/svg" xmlns:xlink="http://www.w3.org/1999/xlink" x="0px" y="0px"
	 viewBox="0 0 166 58.8" style="enable-background:new 0 0 166 58.8;" xml:space="preserve">
<style type="text/css">
	.st0{fill:#24275E;}
	.st1{fill:#0B0B0B;}
	.st2{fill:#FFFFFF;}
</style>
<text transform="matrix(1 0 0 1 127.6557 -33.2247)" style="font-family:'Mouser'; font-size:38.3229px;">Chalkboard</text>
<path class="st0" d="M44.6,0H20.7c-3.1,0-6,1.7-7.6,4.4L1.2,25c-1.6,2.7-1.6,6,0,8.7l11.9,20.7c1.6,2.7,4.4,4.4,7.6,4.4h23.9
	c3.1,0,6-1.7,7.6-4.4l11.9-20.7c1.6-2.7,1.6-6,0-8.7L52.1,4.4C50.5,1.7,47.7,0,44.6,0z"/>
<path class="st0" d="M85.4,37.2c-1.3,0.4-2.6,0.8-3.9,1c-1.3,0.2-2.8,0.3-4.4,0.3c-3,0-5.5-0.3-7.4-1v-3.3H71
	c0.4,0.4,0.6,0.8,0.8,1.2c0.2,0.1,0.4,0.2,0.7,0.3c0.3,0.1,0.6,0.2,1,0.2c0.4,0.1,0.9,0.1,1.5,0.1c0.6,0,1.3,0,2.1,0
	c1.5,0,2.7-0.1,3.6-0.2s1.5-0.3,2.1-0.5c0.1-0.3,0.2-0.7,0.2-1.3s0-1.2,0-1.9c0-2.1-1-3.2-3-3.4l-4.9-0.5c-1.6-0.2-2.9-0.7-3.8-1.6
	s-1.4-2.1-1.4-3.7v-1c0-0.6,0-1.3,0.1-1.9c0-0.6,0.1-1.2,0.2-1.8c1.3-0.4,2.6-0.8,3.9-1c1.3-0.2,2.8-0.3,4.4-0.3
	c2.5,0,4.9,0.2,7.1,0.7V21h-1.3c-0.4-0.4-0.6-0.7-0.8-1.1c-1.1-0.2-2.8-0.3-5-0.3c-1.1,0-2.1,0.1-3,0.2c-0.9,0.1-1.8,0.3-2.7,0.5
	c-0.2,0.7-0.2,1.7-0.2,2.8c0,1,0.3,1.7,0.8,2.2s1.2,0.7,2.1,0.7l4,0.3c2,0.1,3.5,0.7,4.6,1.6c1,0.9,1.6,2.4,1.6,4.4v1.3
	c0,0.6,0,1.3-0.1,1.9C85.5,36,85.5,36.6,85.4,37.2z"/>
<path class="st0" d="M108.6,18.4c0.1,0.6,0.2,1.2,0.2,1.8c0,0.6,0.1,1.2,0.1,1.9v11.5c0,0.6,0,1.3-0.1,1.9c0,0.6-0.1,1.2-0.2,1.8
	c-1.3,0.4-2.7,0.8-4.2,1c-1.5,0.2-3,0.3-4.7,0.3c-1,0-2.1,0-3.1-0.1c-1.1-0.1-2.1-0.2-3.2-0.3v8.2h-2.7V22.1c0-0.6,0-1.3,0.1-1.9
	c0-0.6,0.1-1.2,0.2-1.8c1.3-0.4,2.7-0.8,4.2-1c1.5-0.2,3-0.3,4.7-0.3s3.2,0.1,4.7,0.3C105.9,17.7,107.3,18,108.6,18.4z M99.8,36
	c2.2,0,4.3-0.2,6.1-0.7c0.1-0.3,0.2-0.7,0.2-1.3c0-0.6,0-1.3,0-2.2v-8.2c0-0.9,0-1.6,0-2.2c0-0.6-0.1-1-0.2-1.3
	c-0.9-0.2-1.9-0.4-2.9-0.5c-1-0.1-2.1-0.2-3.2-0.2c-2.3,0-4.3,0.2-6.1,0.7c-0.1,0.3-0.2,0.7-0.2,1.3c0,0.6,0,1.3,0,2.2v11.8
	c1,0.2,2.1,0.3,3.2,0.4C97.7,36,98.7,36,99.8,36z"/>
<path class="st0" d="M122.9,38.5c-1.8,0-3.5,0-4.9-0.1c-1.4-0.1-2.7-0.2-3.8-0.4c-0.2-0.7-0.4-1.5-0.5-2.5c-0.1-0.9-0.2-1.9-0.2-2.8
	c0-1,0.1-2,0.2-2.9c0.1-0.9,0.3-1.8,0.5-2.6c1.8-0.5,3.5-0.8,5.2-0.8h9.4V24c0-1.3-0.1-2.5-0.2-3.7c-0.9-0.2-1.8-0.4-2.7-0.5
	s-2-0.2-3.1-0.2c-1.4,0-2.6,0-3.7,0.1s-1.9,0.2-2.3,0.3c-0.2,0.5-0.5,0.9-0.8,1.2h-1.3v-3c1.1-0.3,2.3-0.6,3.7-0.7s2.9-0.2,4.3-0.2
	c1.6,0,3.1,0.1,4.5,0.3c1.4,0.2,2.7,0.5,4,1c0.1,0.9,0.2,1.7,0.2,2.5c0,0.8,0.1,1.4,0.1,2.1v9.7c0,1.1,0,2.1-0.1,3
	c0,0.9-0.1,1.7-0.2,2.3c-1.2,0.2-2.5,0.3-3.8,0.4C126,38.4,124.5,38.5,122.9,38.5z M122.9,36c2.2,0,4-0.1,5.6-0.3
	c0.1-0.4,0.1-1,0.2-1.8c0-0.8,0.1-1.6,0.1-2.4v-2.6H120c-1.3,0-2.4,0.1-3.3,0.3c-0.1,0.4-0.2,0.9-0.3,1.5c-0.1,0.6-0.1,1.2-0.1,1.9
	c0,0.5,0,1,0.1,1.6c0.1,0.5,0.1,1,0.3,1.5C118.5,35.9,120.6,36,122.9,36z"/>
<path class="st0" d="M154.8,38.3h-2.7V24.7c0-2.1-0.2-3.6-0.5-4.4c-0.9-0.2-1.8-0.4-2.8-0.5s-2-0.2-3-0.2c-1.1,0-2.2,0-3.3,0.1
	s-2.1,0.2-3,0.3v18.4h-2.7V17.7c1.5-0.2,3-0.4,4.5-0.4c1.5-0.1,3.1-0.1,4.7-0.1c3.6,0,6.3,0.5,8,1.5c0.5,1.8,0.7,3.7,0.7,5.9V38.3z"
	/>
<path class="st0" d="M160.2,8.1h3.1v3.6h-3.1V8.1z M160.4,17.3h2.7v21h-2.7V17.3z"/>
<text transform="matrix(1 0 0 1 213.485 78.0221)" class="st1" style="font-family:'RationalInteger'; font-size:38.3229px;">Chalkboard</text>
<text transform="matrix(1 0 0 1 172.6192 111.8019)" class="st1" style="font-family:'SFNewRepublic'; font-size:38.3229px;">Chalkboard</text>
<text transform="matrix(1 0 0 1 125.422 -228.3542)" class="st1" style="font-family:'SFNewRepublic'; font-size:38.3229px;">Chalkboard</text>
<text transform="matrix(1 0 0 1 225.4722 186.4499)" class="st1" style="font-family:'RimouskiLight'; font-size:38.3229px;">Chalkboard</text>
<polygon class="st1" points="70.4,-203.2 50.9,-217.4 43.4,-240.3 50.9,-263.2 70.4,-277.4 94.5,-277.4 114,-263.2 121.4,-240.3 
	114,-217.4 94.5,-203.2 "/>
<rect x="98.8" y="-166.8" class="st1" width="253.3" height="62.8"/>
<text transform="matrix(1 0 0 1 67.3927 -226.7194)" class="st2" style="font-family:'SFNewRepublic'; font-size:38.3229px;">C</text>
<text transform="matrix(1 0 0 1 153.4141 -205.547)" style="font-family:'SFOldRepublic'; font-size:12px;">where ideas become a business</text>
<text transform="matrix(1 0 0 1 108.0371 -122.7538)" class="st2" style="font-family:'RoughDraftOutlines'; font-size:34.322px;">Chalkboard</text>
<path class="st2" d="M32.3,20.2c1.8,0,3.5,0,4.9,0.1c1.4,0.1,2.7,0.2,3.8,0.4c0.4,1.5,0.7,3.2,0.7,5.1S41.5,29.4,41,31
	c-1.8,0.5-3.5,0.8-5.2,0.8h-9.4v2.8c0,1.3,0.1,2.5,0.2,3.7c1.8,0.5,3.8,0.7,6,0.7c1.4,0,2.6,0,3.8-0.1c1.1-0.1,1.9-0.2,2.3-0.3
	c0.2-0.5,0.5-0.9,0.8-1.2h1.3v3c-1.1,0.3-2.3,0.6-3.8,0.7c-1.4,0.2-2.9,0.2-4.3,0.2c-1.6,0-3.2-0.1-4.6-0.3c-1.4-0.2-2.8-0.5-4.1-1
	c-0.1-0.9-0.2-1.7-0.2-2.5c0-0.8-0.1-1.4-0.1-2v-9.9c0-1.1,0-2,0.1-2.9c0-0.8,0.1-1.6,0.2-2.2c1.2-0.2,2.5-0.3,3.8-0.4
	C29.2,20.2,30.7,20.2,32.3,20.2z M32.3,22.6c-2.2,0-4.1,0.1-5.6,0.3c-0.2,0.9-0.2,2.2-0.2,3.8v2.6h8.8c1.3,0,2.4-0.1,3.3-0.3
	c0.2-0.8,0.3-1.9,0.3-3.2c0-1-0.1-1.9-0.3-2.8C36.8,22.7,34.7,22.6,32.3,22.6z"/>
</svg>
